# xmcd CD database file
#
# Track frame offsets:
#	150
#	20191
#	51905
#	96036
#	133055
#	165462
#	191316
#	216380
#	236566
#
# Disc length: 3327 seconds
#
# Revision: 0
# Processed by: cddbd v1.5.2PL0 Copyright (c) Steve Scherf et al.
# Submitted via: Feurio! 1.68 - http://www.feurio.com
#
DISCID=7c0cfd09
DTITLE=Rory Gallagher - 1975 # The Story Of Rory Gallagher [CD2]
DYEAR=1975
DGENRE=
TTITLE0=Livin' Like a Trucker
TTITLE1=A Million Miles Away
TTITLE2=In Your Town
TTITLE3=Just a Little Bit
TTITLE4=Walk on Hot Coals
TTITLE5=Messing with the Kid
TTITLE6=As the Crow Flies
TTITLE7=Admit It
TTITLE8=Don't Know Where I'm Going
EXTD=
EXTT0=
EXTT1=
EXTT2=
EXTT3=
EXTT4=
EXTT5=
EXTT6=
EXTT7=
EXTT8=
PLAYORDER=
